#!OML:ASF X:\für Bonn\!DataBase\2005_08_11_Bastian_Final\c3d\Bastian.ASF
:FULLY-SPECIFIED
:DEGREES
174
root -21.7564 17.6303 0.178131 86.2777 -80.2945 -90.4788
lowerback 5.59874 3.57378 7.15025
upperback 3.66474 4.98135 -2.95201
thorax 1.57341 2.65442 -7.27349
lowerneck -7.27109 -10.8302 -1.93149
upperneck -15.1317 -13.7829 16.0131
head -1.98826 -7.56932 4.97717
rclavicle -1.47101e-014 9.54166e-015
rhumerus 56.7488 2.26051 -11.4245
rradius 31.6954
rwrist -26.2493
rhand -11.5911 -10.4275
rfingers 7.12502
rthumb 14.451 -39.9044
lclavicle -1.47101e-014 9.54166e-015
lhumerus -27.4555 -6.16397 79.366
lradius 12.2188
lwrist 11.0763
lhand -11.4008 -6.96003
lfingers 7.12502
lthumb 14.6343 22.5036
rfemur 9.4454 2.8625 26.3652
rtibia 28.8108
rfoot -10.304 0.076056
rtoes -27.4154
lfemur -8.12208 4.81575 -11.5291
ltibia 28.5622
lfoot -7.53257 -11.8598
ltoes -0.977451
175
root -21.757 17.6304 0.178412 86.9073 -80.3131 -91.0986
lowerback 5.64417 3.52136 7.11086
upperback 3.65506 4.91256 -2.93268
thorax 1.51982 2.61602 -7.23362
lowerneck -7.34487 -10.7878 -1.81976
upperneck -15.0609 -13.742 15.9835
head -1.97006 -7.54879 4.94639
rclavicle -3.3197e-014 -1.59028e-015
rhumerus 56.9751 1.59524 -13.0627
rradius 31.9279
rwrist -24.1932
rhand -12.6483 -9.76125
rfingers 7.12502
rthumb 13.4322 -39.3082
lclavicle -3.3197e-014 -1.59028e-015
lhumerus -27.4732 -6.34752 79.5404
lradius 12.4022
lwrist 11.2503
lhand -11.3208 -7.02158
lfingers 7.12502
lthumb 14.7114 22.4364
rfemur 9.4338 2.91724 26.3316
rtibia 28.7998
rfoot -10.3047 0.139426
rtoes -27.5328
lfemur -8.10751 4.89016 -11.5428
ltibia 28.553
lfoot -7.54728 -11.8301
ltoes -1.00379
176
root -21.7575 17.6306 0.179303 87.5113 -80.3126 -91.6836
lowerback 5.67401 3.4679 7.0967
upperback 3.64783 4.84265 -2.90887
thorax 1.47939 2.57825 -7.20191
lowerneck -7.41291 -10.7503 -1.69262
upperneck -15.0025 -13.7082 15.9482
head -1.95751 -7.53325 4.91243
rclavicle -8.96519e-014 9.54166e-015
rhumerus 57.2102 0.858434 -14.9504
rradius 32.1986
rwrist -21.7751
rhand -13.7004 -8.94433
rfingers 7.12502
rthumb 12.418 -38.5555
lclavicle -8.96519e-014 9.54166e-015
lhumerus -27.5288 -6.79048 79.8159
lradius 12.6696
lwrist 11.7172
lhand -11.2911 -7.0402
lfingers 7.12502
lthumb 14.74 22.4157
rfemur 9.41494 2.96423 26.3149
rtibia 28.787
rfoot -10.3289 0.210119
rtoes -27.5842
lfemur -8.10859 4.95957 -11.5395
ltibia 28.5383
lfoot -7.5506 -11.7995
ltoes -1.0856
177
root -21.7576 17.6316 0.179968 88.2626 -80.3256 -92.3929
lowerback 5.69001 3.40939 7.0598
upperback 3.63493 4.76446 -2.88217
thorax 1.43694 2.53562 -7.1532
lowerneck -7.45349 -10.7002 -1.66021
upperneck -14.9652 -13.6454 16.0127
head -1.94181 -7.5044 4.92481
rclavicle 8.7664e-014 -3.65764e-014
rhumerus 57.4445 0.181294 -16.7576
rradius 32.6262
rwrist -19.3873
rhand -14.8483 -8.09752
rfingers 7.12502
rthumb 11.3111 -37.7725
lclavicle 8.7664e-014 -3.65764e-014
lhumerus -27.5338 -6.93277 79.9973
lradius 12.8412
lwrist 11.8823
lhand -11.2261 -7.06865
lfingers 7.12502
lthumb 14.8027 22.3827
rfemur 9.36458 3.04526 26.2824
rtibia 28.7744
rfoot -10.3407 0.270594
rtoes -27.5779
lfemur -8.12428 5.00906 -11.5524
ltibia 28.5222
lfoot -7.55357 -11.7368
ltoes -0.954014
178
root -21.7575 17.6319 0.180863 88.9668 -80.3425 -93.091
lowerback 5.75039 3.34605 7.02845
upperback 3.62125 4.68249 -2.86171
thorax 1.3696 2.49015 -7.11732
lowerneck -7.4446 -10.651 -1.62385
upperneck -14.9467 -13.5802 16.0971
head -1.93832 -7.47783 4.94637
rclavicle -1.68967e-014 -3.18055e-015
rhumerus 57.5636 -0.405889 -18.4007
rradius 33.3383
rwrist -17.1178
rhand -16.0569 -7.2599
rfingers 7.12502
rthumb 10.1453 -36.9953
lclavicle -1.68967e-014 -3.18055e-015
lhumerus -27.5709 -7.13006 80.1777
lradius 13.0159
lwrist 12.044
lhand -11.1921 -7.10538
lfingers 7.12502
lthumb 14.8355 22.3435
rfemur 9.36184 3.13287 26.2549
rtibia 28.7602
rfoot -10.3612 0.302098
rtoes -27.6638
lfemur -8.10852 5.07435 -11.5719
ltibia 28.5032
lfoot -7.56033 -11.684
ltoes -0.96933
179
root -21.7574 17.6323 0.181653 89.7307 -80.3562 -93.8233
lowerback 5.78782 3.27429 6.99212
upperback 3.60053 4.5882 -2.83794
thorax 1.30487 2.43841 -7.0733
lowerneck -7.4492 -10.585 -1.61274
upperneck -14.9217 -13.491 16.2066
head -1.92863 -7.4384 4.97875
rclavicle -8.94531e-015 2.06736e-014
rhumerus 57.5794 -0.880979 -19.7718
rradius 34.416
rwrist -15.0444
rhand -17.3458 -6.56363
rfingers 7.12502
rthumb 8.90164 -36.3559
lclavicle -8.94531e-015 2.06736e-014
lhumerus -27.653 -7.45397 80.4016
lradius 13.2545
lwrist 12.3997
lhand -11.1183 -7.11405
lfingers 7.12502
lthumb 14.9065 22.3296
rfemur 9.32708 3.20161 26.2178
rtibia 28.7526
rfoot -10.3827 0.377888
rtoes -27.7366
lfemur -8.11075 5.15224 -11.5894
ltibia 28.4782
lfoot -7.56833 -11.6348
ltoes -0.995626
